<?xml version="1.0" encoding="utf-8"?>
<svg xmlns="http://www.w3.org/2000/svg" version="1.1" width="1920.0" height="1080.0">
    <ellipse cx="0.0" cy="540.0" rx="15.0" ry="15.0" fill="red" />
    <ellipse cx="19.200000000000003" cy="2.697750749866057" rx="15.0" ry="15.0" fill="blue" />
    <ellipse cx="38.400000000000006" cy="432.7185613706669" rx="15.0" ry="15.0" fill="red" />
    <ellipse cx="57.60000000000001" cy="24.11829587217277" rx="15.0" ry="15.0" fill="blue" />
    <ellipse cx="76.80000000000001" cy="329.7140951533287" rx="15.0" ry="15.0" fill="red" />
    <ellipse cx="96.0" cy="66.1054165791987" rx="15.0" ry="15.0" fill="blue" />
    <ellipse cx="115.19999999999999" cy="235.0930643666809" rx="15.0" ry="15.0" fill="red" />
    <ellipse cx="134.39999999999998" cy="126.98521886637621" rx="15.0" ry="15.0" fill="blue" />
    <ellipse cx="153.6" cy="152.62771091425776" rx="15.0" ry="15.0" fill="red" />
    <ellipse cx="172.79999999999998" cy="204.33061713384117" rx="15.0" ry="15.0" fill="blue" />
    <ellipse cx="191.99999999999997" cy="85.60566820373595" rx="15.0" ry="15.0" fill="red" />
    <ellipse cx="211.2" cy="295.05809443018813" rx="15.0" ry="15.0" fill="blue" />
    <ellipse cx="230.39999999999998" cy="36.6988935776978" rx="15.0" ry="15.0" fill="red" />
    <ellipse cx="249.60000000000002" cy="395.5506325427228" rx="15.0" ry="15.0" fill="blue" />
    <ellipse cx="268.8" cy="7.857145806231463" rx="15.0" ry="15.0" fill="red" />
    <ellipse cx="288.00000000000006" cy="501.80191109944053" rx="15.0" ry="15.0" fill="blue" />
    <ellipse cx="307.20000000000005" cy="0.23025435758724067" rx="15.0" ry="15.0" fill="red" />
    <ellipse cx="326.4000000000001" cy="609.5760269195836" rx="15.0" ry="15.0" fill="blue" />
    <ellipse cx="345.6000000000001" cy="14.12227932577468" rx="15.0" ry="15.0" fill="red" />
    <ellipse cx="364.8000000000001" cy="714.5763661062922" rx="15.0" ry="15.0" fill="blue" />
    <ellipse cx="384.0000000000001" cy="48.979389514131995" rx="15.0" ry="15.0" fill="red" />
    <ellipse cx="403.2000000000001" cy="812.6168964839233" rx="15.0" ry="15.0" fill="blue" />
    <ellipse cx="422.4000000000001" cy="103.41194193742147" rx="15.0" ry="15.0" fill="red" />
    <ellipse cx="441.60000000000014" cy="899.7890514911054" rx="15.0" ry="15.0" fill="blue" />
    <ellipse cx="460.8000000000002" cy="175.24988250237885" rx="15.0" ry="15.0" fill="red" />
    <ellipse cx="480.00000000000017" cy="972.6175523953445" rx="15.0" ry="15.0" fill="blue" />
    <ellipse cx="499.20000000000016" cy="261.62925921640976" rx="15.0" ry="15.0" fill="red" />
    <ellipse cx="518.4000000000002" cy="1028.1989566892132" rx="15.0" ry="15.0" fill="blue" />
    <ellipse cx="537.6000000000003" cy="359.10639891581195" rx="15.0" ry="15.0" fill="red" />
    <ellipse cx="556.8000000000002" cy="1064.3174091807791" rx="15.0" ry="15.0" fill="blue" />
    <ellipse cx="576.0000000000002" cy="463.7951956476724" rx="15.0" ry="15.0" fill="red" />
    <ellipse cx="595.2000000000003" cy="1079.5329811475708" rx="15.0" ry="15.0" fill="blue" />
    <ellipse cx="614.4000000000003" cy="571.522037450894" rx="15.0" ry="15.0" fill="red" />
    <ellipse cx="633.6000000000004" cy="1073.239075750787" rx="15.0" ry="15.0" fill="blue" />
    <ellipse cx="652.8000000000003" cy="677.9921950944898" rx="15.0" ry="15.0" fill="red" />
    <ellipse cx="672.0000000000003" cy="1045.6866111370296" rx="15.0" ry="15.0" fill="blue" />
    <ellipse cx="691.2000000000004" cy="778.9610393792212" rx="15.0" ry="15.0" fill="red" />
    <ellipse cx="710.4000000000003" cy="997.9740171236199" rx="15.0" ry="15.0" fill="blue" />
    <ellipse cx="729.6000000000004" cy="870.4032611090691" rx="15.0" ry="15.0" fill="red" />
    <ellipse cx="748.8000000000004" cy="932.0034442680749" rx="15.0" ry="15.0" fill="blue" />
    <ellipse cx="768.0000000000003" cy="948.6733474662818" rx="15.0" ry="15.0" fill="red" />
    <ellipse cx="787.2000000000003" cy="850.4049311279646" rx="15.0" ry="15.0" fill="blue" />
    <ellipse cx="806.4000000000002" cy="1010.6509171033379" rx="15.0" ry="15.0" fill="red" />
    <ellipse cx="825.6000000000001" cy="756.4315529231862" rx="15.0" ry="15.0" fill="blue" />
    <ellipse cx="844.8000000000001" cy="1053.8651199003386" rx="15.0" ry="15.0" fill="red" />
    <ellipse cx="864.0" cy="653.829731692621" rx="15.0" ry="15.0" fill="blue" />
    <ellipse cx="883.1999999999999" cy="1076.5931419620708" rx="15.0" ry="15.0" fill="red" />
    <ellipse cx="902.3999999999999" cy="546.6898782699614" rx="15.0" ry="15.0" fill="blue" />
    <ellipse cx="921.5999999999998" cy="1077.928888771354" rx="15.0" ry="15.0" fill="red" />
    <ellipse cx="940.7999999999997" cy="439.2833205118101" rx="15.0" ry="15.0" fill="blue" />
    <ellipse cx="959.9999999999997" cy="1057.819108318095" rx="15.0" ry="15.0" fill="red" />
    <ellipse cx="979.1999999999996" cy="335.8920189349916" rx="15.0" ry="15.0" fill="blue" />
    <ellipse cx="998.3999999999995" cy="1017.0655140888834" rx="15.0" ry="15.0" fill="red" />
    <ellipse cx="1017.5999999999995" cy="240.6378584632544" rx="15.0" ry="15.0" fill="blue" />
    <ellipse cx="1036.7999999999993" cy="957.2928232802343" rx="15.0" ry="15.0" fill="red" />
    <ellipse cx="1055.9999999999993" cy="157.31832188272094" rx="15.0" ry="15.0" fill="blue" />
    <ellipse cx="1075.1999999999994" cy="880.8839844510552" rx="15.0" ry="15.0" fill="red" />
    <ellipse cx="1094.3999999999992" cy="89.25509618685504" rx="15.0" ry="15.0" fill="blue" />
    <ellipse cx="1113.599999999999" cy="790.8851768834311" rx="15.0" ry="15.0" fill="red" />
    <ellipse cx="1132.799999999999" cy="39.16164739822169" rx="15.0" ry="15.0" fill="blue" />
    <ellipse cx="1151.999999999999" cy="690.8843690274227" rx="15.0" ry="15.0" fill="red" />
    <ellipse cx="1171.199999999999" cy="9.035043241004853" rx="15.0" ry="15.0" fill="blue" />
    <ellipse cx="1190.3999999999987" cy="584.8682775214514" rx="15.0" ry="15.0" fill="red" />
    <ellipse cx="1209.5999999999988" cy="0.07633635295578589" rx="15.0" ry="15.0" fill="blue" />
    <ellipse cx="1228.7999999999988" cy="477.06342938073726" rx="15.0" ry="15.0" fill="red" />
    <ellipse cx="1247.9999999999986" cy="12.642682106866477" rx="15.0" ry="15.0" fill="blue" />
    <ellipse cx="1267.1999999999985" cy="371.76766370277966" rx="15.0" ry="15.0" fill="red" />
    <ellipse cx="1286.3999999999985" cy="46.233099952925784" rx="15.0" ry="15.0" fill="blue" />
    <ellipse cx="1305.5999999999985" cy="273.17879038515537" rx="15.0" ry="15.0" fill="red" />
    <ellipse cx="1324.7999999999984" cy="99.5084459323045" rx="15.0" ry="15.0" fill="blue" />
    <ellipse cx="1343.9999999999982" cy="185.2272366918575" rx="15.0" ry="15.0" fill="red" />
    <ellipse cx="1363.1999999999982" cy="170.34480012088096" rx="15.0" ry="15.0" fill="blue" />
    <ellipse cx="1382.3999999999983" cy="111.4193535214605" rx="15.0" ry="15.0" fill="red" />
    <ellipse cx="1401.599999999998" cy="255.91814061419865" rx="15.0" ry="15.0" fill="blue" />
    <ellipse cx="1420.799999999998" cy="54.697628261723985" rx="15.0" ry="15.0" fill="red" />
    <ellipse cx="1439.999999999998" cy="352.81692836908064" rx="15.0" ry="15.0" fill="blue" />
    <ellipse cx="1459.199999999998" cy="17.323377102998826" rx="15.0" ry="15.0" fill="red" />
    <ellipse cx="1478.3999999999978" cy="457.1781144995471" rx="15.0" ry="15.0" fill="blue" />
    <ellipse cx="1497.5999999999976" cy="0.7865934977136679" rx="15.0" ry="15.0" fill="red" />
    <ellipse cx="1516.7999999999977" cy="564.8411478453432" rx="15.0" ry="15.0" fill="blue" />
    <ellipse cx="1535.9999999999977" cy="5.746546823372876" rx="15.0" ry="15.0" fill="red" />
    <ellipse cx="1555.1999999999975" cy="671.5138430173206" rx="15.0" ry="15.0" fill="blue" />
    <ellipse cx="1574.3999999999974" cy="32.005499392920235" rx="15.0" ry="15.0" fill="red" />
    <ellipse cx="1593.5999999999974" cy="772.9434962841283" rx="15.0" ry="15.0" fill="blue" />
    <ellipse cx="1612.7999999999975" cy="78.51658963232455" rx="15.0" ry="15.0" fill="red" />
    <ellipse cx="1631.9999999999973" cy="865.0864274497986" rx="15.0" ry="15.0" fill="blue" />
    <ellipse cx="1651.199999999997" cy="143.4255671479736" rx="15.0" ry="15.0" fill="red" />
    <ellipse cx="1670.3999999999971" cy="944.2691886225901" rx="15.0" ry="15.0" fill="blue" />
    <ellipse cx="1689.5999999999972" cy="224.14471583844167" rx="15.0" ry="15.0" fill="red" />
    <ellipse cx="1708.799999999997" cy="1007.3350129901962" rx="15.0" ry="15.0" fill="blue" />
    <ellipse cx="1727.9999999999968" cy="317.45601796944356" rx="15.0" ry="15.0" fill="red" />
    <ellipse cx="1747.1999999999969" cy="1051.7696651507977" rx="15.0" ry="15.0" fill="blue" />
    <ellipse cx="1766.399999999997" cy="419.6394463858578" rx="15.0" ry="15.0" fill="red" />
    <ellipse cx="1785.5999999999967" cy="1075.8016757444047" rx="15.0" ry="15.0" fill="blue" />
    <ellipse cx="1804.7999999999965" cy="526.6212702551773" rx="15.0" ry="15.0" fill="red" />
    <ellipse cx="1823.9999999999966" cy="1078.472964346045" rx="15.0" ry="15.0" fill="blue" />
    <ellipse cx="1843.1999999999966" cy="634.1364618603995" rx="15.0" ry="15.0" fill="red" />
    <ellipse cx="1862.3999999999965" cy="1059.67703510891" rx="15.0" ry="15.0" fill="blue" />
    <ellipse cx="1881.5999999999963" cy="737.8987297960316" rx="15.0" ry="15.0" fill="red" />
    <ellipse cx="1900.7999999999963" cy="1020.1632224176998" rx="15.0" ry="15.0" fill="blue" />
    <ellipse cx="1919.9999999999964" cy="833.7713998802509" rx="15.0" ry="15.0" fill="red" />
    <text x="0.0" y="540.0" fill="black" >0</text>
    <text x="301.59289474464003" y="540.0" fill="black" font-size="32.0" >π/2</text>
    <text x="603.1857894892801" y="540.0" fill="black" font-family="Sans-Serif" font-size="32.0" >π</text>
    <text x="904.7786842339201" y="540.0" fill="black" font-family="Cursive" font-size="32.0" >3π/2</text>
    <text x="1206.3715789785601" y="540.0" fill="black" font-family="Fantasy" font-size="32.0" >2π</text>
</svg>
