<?xml version="1.0" encoding="utf-8"?>
<svg xmlns="http://www.w3.org/2000/svg" version="1.1" width="1920.0" height="1080.0">
    <polyline points="960.0,1080.0 960.0,0.0 " stroke="blue" />
    <polyline points="1920.0,540.0 0.0,540.0 " stroke="blue" />
    <ellipse cx="0.0" cy="1340.0" rx="10.0" ry="10.0" fill="rgba(255,0,255,1)" stroke="blue" />
    <ellipse cx="48.00000000000004" cy="1225.8999999999999" rx="10.0" ry="10.0" fill="rgba(255,0,255,1)" stroke="blue" />
    <ellipse cx="96.00000000000009" cy="1123.1999999999998" rx="10.0" ry="10.0" fill="rgba(255,0,255,1)" stroke="blue" />
    <ellipse cx="144.0000000000001" cy="1031.2999999999997" rx="10.0" ry="10.0" fill="rgba(255,0,255,1)" stroke="blue" />
    <ellipse cx="192.00000000000017" cy="949.5999999999997" rx="10.0" ry="10.0" fill="rgba(255,0,255,1)" stroke="blue" />
    <ellipse cx="240.00000000000023" cy="877.4999999999998" rx="10.0" ry="10.0" fill="rgba(255,0,255,1)" stroke="blue" />
    <ellipse cx="288.0000000000002" cy="814.3999999999996" rx="10.0" ry="10.0" fill="rgba(255,0,255,1)" stroke="blue" />
    <ellipse cx="336.0000000000003" cy="759.6999999999997" rx="10.0" ry="10.0" fill="rgba(255,0,255,1)" stroke="blue" />
    <ellipse cx="384.00000000000034" cy="712.7999999999997" rx="10.0" ry="10.0" fill="rgba(255,0,255,1)" stroke="blue" />
    <ellipse cx="432.0000000000004" cy="673.0999999999997" rx="10.0" ry="10.0" fill="rgba(255,0,255,1)" stroke="blue" />
    <ellipse cx="480.00000000000045" cy="639.9999999999998" rx="10.0" ry="10.0" fill="rgba(255,0,255,1)" stroke="blue" />
    <ellipse cx="528.0000000000003" cy="612.8999999999999" rx="10.0" ry="10.0" fill="rgba(255,0,255,1)" stroke="blue" />
    <ellipse cx="576.0000000000003" cy="591.1999999999998" rx="10.0" ry="10.0" fill="rgba(255,0,255,1)" stroke="blue" />
    <ellipse cx="624.0000000000003" cy="574.3" rx="10.0" ry="10.0" fill="rgba(255,0,255,1)" stroke="blue" />
    <ellipse cx="672.0000000000003" cy="561.5999999999999" rx="10.0" ry="10.0" fill="rgba(255,0,255,1)" stroke="blue" />
    <ellipse cx="720.0000000000003" cy="552.5" rx="10.0" ry="10.0" fill="rgba(255,0,255,1)" stroke="blue" />
    <ellipse cx="768.0000000000002" cy="546.4" rx="10.0" ry="10.0" fill="rgba(255,0,255,1)" stroke="blue" />
    <ellipse cx="816.0000000000003" cy="542.6999999999999" rx="10.0" ry="10.0" fill="rgba(255,0,255,1)" stroke="blue" />
    <ellipse cx="864.0000000000003" cy="540.8" rx="10.0" ry="10.0" fill="rgba(255,0,255,1)" stroke="blue" />
    <ellipse cx="912.0000000000002" cy="540.1" rx="10.0" ry="10.0" fill="rgba(255,0,255,1)" stroke="blue" />
    <ellipse cx="960.0000000000002" cy="540.0" rx="10.0" ry="10.0" fill="rgba(255,0,255,1)" stroke="blue" />
    <ellipse cx="1008.0000000000002" cy="539.9" rx="10.0" ry="10.0" fill="rgba(255,0,254,1)" stroke="blue" />
    <ellipse cx="1056.0000000000002" cy="539.2" rx="10.0" ry="10.0" fill="rgba(255,0,254,1)" stroke="blue" />
    <ellipse cx="1104.0000000000005" cy="537.3" rx="10.0" ry="10.0" fill="rgba(255,0,254,1)" stroke="blue" />
    <ellipse cx="1152.0000000000005" cy="533.6" rx="10.0" ry="10.0" fill="rgba(255,0,254,1)" stroke="blue" />
    <ellipse cx="1200.0000000000005" cy="527.5" rx="10.0" ry="10.0" fill="rgba(255,0,254,1)" stroke="blue" />
    <ellipse cx="1248.0000000000002" cy="518.4" rx="10.0" ry="10.0" fill="rgba(255,0,254,1)" stroke="blue" />
    <ellipse cx="1296.0000000000002" cy="505.69999999999993" rx="10.0" ry="10.0" fill="rgba(255,0,254,1)" stroke="blue" />
    <ellipse cx="1344.0000000000005" cy="488.7999999999999" rx="10.0" ry="10.0" fill="rgba(255,0,254,1)" stroke="blue" />
    <ellipse cx="1392.0000000000002" cy="467.09999999999985" rx="10.0" ry="10.0" fill="rgba(255,0,254,1)" stroke="blue" />
    <ellipse cx="1440.0000000000005" cy="439.9999999999998" rx="10.0" ry="10.0" fill="rgba(255,0,254,1)" stroke="blue" />
    <ellipse cx="1488.0000000000002" cy="406.89999999999975" rx="10.0" ry="10.0" fill="rgba(255,0,254,1)" stroke="blue" />
    <ellipse cx="1536.0000000000005" cy="367.1999999999996" rx="10.0" ry="10.0" fill="rgba(255,0,254,1)" stroke="blue" />
    <ellipse cx="1584.0000000000005" cy="320.2999999999995" rx="10.0" ry="10.0" fill="rgba(255,0,254,1)" stroke="blue" />
    <ellipse cx="1632.0000000000007" cy="265.5999999999994" rx="10.0" ry="10.0" fill="rgba(255,0,254,1)" stroke="blue" />
    <ellipse cx="1680.0000000000005" cy="202.49999999999926" rx="10.0" ry="10.0" fill="rgba(255,0,254,1)" stroke="blue" />
    <ellipse cx="1728.0000000000007" cy="130.39999999999912" rx="10.0" ry="10.0" fill="rgba(255,0,254,1)" stroke="blue" />
    <ellipse cx="1776.0000000000005" cy="48.69999999999891" rx="10.0" ry="10.0" fill="rgba(255,0,254,1)" stroke="blue" />
    <ellipse cx="1824.0000000000007" cy="-43.200000000001296" rx="10.0" ry="10.0" fill="rgba(255,0,254,1)" stroke="blue" />
    <ellipse cx="1872.0000000000007" cy="-145.90000000000157" rx="10.0" ry="10.0" fill="rgba(255,0,254,1)" stroke="blue" />
    <polyline points="0.0,1340.0 48.00000000000004,1225.8999999999999 96.00000000000009,1123.1999999999998 144.0000000000001,1031.2999999999997 192.00000000000017,949.5999999999997 240.00000000000023,877.4999999999998 288.0000000000002,814.3999999999996 336.0000000000003,759.6999999999997 384.00000000000034,712.7999999999997 432.0000000000004,673.0999999999997 480.00000000000045,639.9999999999998 528.0000000000003,612.8999999999999 576.0000000000003,591.1999999999998 624.0000000000003,574.3 672.0000000000003,561.5999999999999 720.0000000000003,552.5 768.0000000000002,546.4 816.0000000000003,542.6999999999999 864.0000000000003,540.8 912.0000000000002,540.1 960.0000000000002,540.0 1008.0000000000002,539.9 1056.0000000000002,539.2 1104.0000000000005,537.3 1152.0000000000005,533.6 1200.0000000000005,527.5 1248.0000000000002,518.4 1296.0000000000002,505.69999999999993 1344.0000000000005,488.7999999999999 1392.0000000000002,467.09999999999985 1440.0000000000005,439.9999999999998 1488.0000000000002,406.89999999999975 1536.0000000000005,367.1999999999996 1584.0000000000005,320.2999999999995 1632.0000000000007,265.5999999999994 1680.0000000000005,202.49999999999926 1728.0000000000007,130.39999999999912 1776.0000000000005,48.69999999999891 1824.0000000000007,-43.200000000001296 1872.0000000000007,-145.90000000000157 " fill="none" stroke="black" />
</svg>
